<?xml version="1.0" standalone="no"?>
<!DOCTYPE svg PUBLIC "-//W3C//DTD SVG 20010904//EN"
 "http://www.w3.org/TR/2001/REC-SVG-20010904/DTD/svg10.dtd">
<svg version="1.0" xmlns="http://www.w3.org/2000/svg"
 width="164.000000pt" height="314.000000pt" viewBox="0 0 164.000000 314.000000"
 preserveAspectRatio="xMidYMid meet">

<g transform="translate(0.000000,314.000000) scale(0.100000,-0.100000)"
fill="#000000" stroke="none">
<path d="M675 2625 c-388 -72 -675 -415 -675 -805 0 -392 292 -738 681 -806
412 -72 814 183 931 592 32 113 32 315 0 428 -117 410 -526 668 -937 591z m39
-261 c12 -11 16 -36 16 -95 l0 -79 70 0 70 0 0 -70 0 -70 -70 0 -70 0 0 -90
c0 -49 3 -90 8 -90 4 0 44 7 90 16 l82 17 0 223 c0 245 2 254 60 254 44 0 60
-31 60 -116 l0 -72 113 -4 c78 -2 119 -7 130 -17 24 -19 25 -291 2 -315 -17
-16 -42 -24 -167 -51 l-78 -17 0 -104 0 -104 111 0 c135 0 149 -6 149 -65 0
-69 -12 -75 -146 -75 l-114 0 0 -68 c0 -80 -17 -112 -60 -112 -47 0 -60 22
-60 106 l0 74 -70 0 -70 0 0 70 0 70 70 0 70 0 0 90 c0 50 -3 90 -7 90 -5 0
-44 -9 -88 -18 l-80 -18 -5 -223 c-5 -240 -5 -241 -62 -241 -43 0 -60 36 -56
115 l3 65 -114 0 c-156 0 -151 -6 -151 175 0 123 2 144 18 158 9 9 66 27 125
40 59 13 109 26 112 28 2 3 5 49 6 104 l2 100 -118 3 c-69 1 -124 7 -132 14
-9 7 -13 27 -11 57 4 62 24 71 158 71 l105 0 -3 70 c-4 86 12 120 58 120 15 0
36 -7 44 -16z"/>
<path d="M1030 1990 c0 -33 1 -60 3 -60 2 0 27 7 55 15 101 30 89 105 -17 105
l-41 0 0 -60z"/>
<path d="M562 1686 c-24 -6 -53 -22 -63 -35 -17 -21 -18 -26 -6 -45 11 -16 27
-22 65 -24 l50 -3 4 56 c1 32 1 58 -2 59 -3 2 -25 -2 -48 -8z"/>
</g>
</svg>
